<?xml version="1.0" encoding="UTF-8"?>
<svg id="_Слой_1" data-name="Слой_1" xmlns="http://www.w3.org/2000/svg" viewBox="0 0 1000 1000">
  <defs>
    <style>
      .cls-1 {
        fill: none;
        stroke: lime;
        stroke-miterlimit: 10;
        stroke-width: 49.6px;
      }

      .cls-2 {
        font-family: Arima-Bold, Arima;
        font-size: 144.53px;
        font-variation-settings: 'wght' 700;
        font-weight: 700;
      }

      .cls-2, .cls-3 {
        fill: lime;
      }
    </style>
  </defs>
  <g>
    <path class="cls-1" d="M436.13,346.63c18.02,15.65,32.22,33.37,42.62,52.27,5.23,9.5,9.49,19.31,12.78,29.3,4.53,13.68,7.24,27.72,8.14,41.82.46,7.02.46,14.06,0,21.08-8.08.4-16.19.4-24.27,0-16.23-.78-32.39-3.14-48.14-7.07-11.51-2.85-22.8-6.56-33.74-11.1-21.76-9.03-42.16-21.37-60.18-37.02s-32.22-33.37-42.62-52.27c-5.23-9.5-9.49-19.31-12.78-29.3-4.53-13.68-7.24-27.72-8.14-41.82-.46-7.02-.46-14.06,0-21.08,8.08-.4,16.19-.4,24.27,0,16.23.78,32.39,3.14,48.14,7.07,11.51,2.85,22.8,6.56,33.74,11.1,21.76,9.03,42.16,21.37,60.18,37.02Z"/>
    <path class="cls-1" d="M563.87,346.63c-18.02,15.65-32.22,33.37-42.62,52.27-5.23,9.5-9.49,19.31-12.78,29.3-4.53,13.68-7.24,27.72-8.14,41.82-.46,7.02-.46,14.06,0,21.08,8.08.4,16.19.4,24.27,0,16.23-.78,32.39-3.14,48.14-7.07,11.51-2.85,22.8-6.56,33.74-11.1,21.76-9.03,42.16-21.37,60.18-37.02,18.02-15.65,32.22-33.37,42.62-52.27,5.23-9.5,9.49-19.31,12.78-29.3,4.53-13.68,7.24-27.72,8.14-41.82.46-7.02.46-14.06,0-21.08-8.08-.4-16.19-.4-24.27,0-16.23.78-32.39,3.14-48.14,7.07-11.51,2.85-22.8,6.56-33.74,11.1-21.76,9.03-42.16,21.37-60.18,37.02Z"/>
    <path class="cls-1" d="M436.13,524.31c18.02,15.65,32.22,33.37,42.62,52.27,5.23,9.5,9.49,19.31,12.78,29.3,4.53,13.68,7.24,27.72,8.14,41.82.46,7.02.46,14.06,0,21.08-8.08.4-16.19.4-24.27,0-16.23-.78-32.39-3.14-48.14-7.07-11.51-2.85-22.8-6.56-33.74-11.1-21.76-9.03-42.16-21.37-60.18-37.02-18.02-15.65-32.22-33.37-42.62-52.27-5.23-9.5-9.49-19.31-12.78-29.3-4.53-13.68-7.24-27.72-8.14-41.82-.46-7.02-.46-14.06,0-21.08,8.08-.4,16.19-.4,24.27,0,16.23.78,32.39,3.14,48.14,7.07,11.51,2.85,22.8,6.56,33.74,11.1,21.76,9.03,42.16,21.37,60.18,37.02Z"/>
    <path class="cls-1" d="M563.87,524.31c-18.02,15.65-32.22,33.37-42.62,52.27-5.23,9.5-9.49,19.31-12.78,29.3-4.53,13.68-7.24,27.72-8.14,41.82-.46,7.02-.46,14.06,0,21.08,8.08.4,16.19.4,24.27,0,16.23-.78,32.39-3.14,48.14-7.07,11.51-2.85,22.8-6.56,33.74-11.1,21.76-9.03,42.16-21.37,60.18-37.02,18.02-15.65,32.22-33.37,42.62-52.27,5.23-9.5,9.49-19.31,12.78-29.3,4.53-13.68,7.24-27.72,8.14-41.82.46-7.02.46-14.06,0-21.08-8.08-.4-16.19-.4-24.27,0-16.23.78-32.39,3.14-48.14,7.07-11.51,2.85-22.8,6.56-33.74,11.1-21.76,9.03-42.16,21.37-60.18,37.02Z"/>
    <rect class="cls-3" x="463.49" y="491.4" width="73.02" height="69.76"/>
    <path class="cls-1" d="M572.68,250.09c0,22.13-4.38,43.39-12.42,63.14-4.04,9.93-9,19.49-14.82,28.57-7.93,12.45-17.44,24.05-28.29,34.57-5.39,5.24-11.12,10.22-17.16,14.91-6.04-4.68-11.77-9.66-17.16-14.91-10.84-10.52-20.35-22.12-28.29-34.57-5.81-9.08-10.78-18.64-14.82-28.57-8.04-19.75-12.42-41-12.42-63.14s4.38-43.39,12.42-63.14c4.04-9.93,9-19.49,14.82-28.57,7.93-12.45,17.44-24.05,28.29-34.57,5.39-5.24,11.12-10.22,17.16-14.91,6.04,4.68,11.77,9.66,17.16,14.91,10.84,10.52,20.35,22.12,28.29,34.57,5.81,9.08,10.78,18.64,14.82,28.57,8.04,19.75,12.42,41,12.42,63.14Z"/>
  </g>
  <text class="cls-2" transform="translate(193.1 857.99)"><tspan x="0" y="0">SeedStore</tspan></text>
</svg>